<svg xmlns="http://www.w3.org/2000/svg" version="1.1" xmlns:xlink="http://www.w3.org/1999/xlink" width="1500" height="743" viewBox="0 0 1500 743"><svg xml:space="preserve" width="1500" height="743" data-version="2" data-id="lg_tlalHPrv8o80KvsdPJ" viewBox="0 0 761 743" x="0" y="0"><path fill="#f70" d="M120.86 315.03q9.41 0 16.76 4.34 7.35 4.34 11.47 11.91 4.11 7.57 4.11 16.97v1.92q0 9.4-4.11 17.05-4.12 7.64-11.47 11.98-7.35 4.33-16.76 4.33H96.61v32.64H64.12V315.03zm-24.25 44.84h13.37q5.15 0 7.72-2.65 2.57-2.64 2.57-7.2v-1.18q0-4.7-2.57-7.27-2.57-2.58-7.72-2.58H96.61Z"></path><rect width="89.08" height="101.14" x="-44.54" y="-50.57" fill="none" rx="0" ry="0" transform="translate(109.16 366.1)"></rect><path fill="#f70" d="M210.97 336.64q3.38 0 6.03.81 2.65.81 2.65.96v24.54h-9.41q-9.12 0-13.16 4.71-4.04 4.7-4.04 13.96v34.55h-29.25v-77.62h23.96l1.91 11.76q2.64-6.76 8.38-10.21 5.73-3.46 12.93-3.46"></path><rect width="55.86" height="79.53" x="-27.93" y="-39.77" fill="none" rx="0" ry="0" transform="translate(192.22 376.9)"></rect><path fill="#f70" d="M267.13 336.79q20.43 0 32.12 10.36 11.68 10.37 11.68 30.21 0 19.85-11.68 30.21-11.69 10.36-32.12 10.36-20.44 0-32.05-10.29-11.61-10.29-11.61-30.28 0-19.99 11.61-30.28 11.61-10.29 32.05-10.29m0 19.84q-14.41 0-14.41 16.61v8.38q0 16.47 14.41 16.47 14.55 0 14.55-16.47v-8.38q0-16.61-14.55-16.61"></path><rect width="87.46" height="81.14" x="-43.73" y="-40.57" fill="none" rx="0" ry="0" transform="translate(267.7 377.86)"></rect><path fill="#f70" d="M357.53 336.79q15.58 0 26.39 6.1 10.8 6.1 10.8 18.89h-27.19q0-4.26-3.82-6.03-2.65-1.47-6.62-1.47-10.58 0-10.58 5 0 2.79 3.67 3.97 3.68 1.17 12.06 2.5 10.29 1.47 17.19 3.45 6.91 1.99 12.06 7.06 5.14 5.07 5.14 14.18 0 14.85-11.1 21.17-11.09 6.32-29.03 6.32-10.29 0-19.4-2.86-9.12-2.87-14.85-8.9-5.73-6.02-5.73-15.29h27.19v.59q.15 5 4.19 6.99 4.05 1.98 8.6 1.98 12.2 0 12.2-5.73 0-2.94-3.82-4.27-3.82-1.32-12.49-2.79-10.44-1.76-17.13-3.82-6.69-2.06-11.69-6.98-4.99-4.93-4.99-13.75 0-14.26 10.8-20.28 10.81-6.03 28.15-6.03"></path><rect width="80.11" height="81.14" x="-40.05" y="-40.57" fill="none" rx="0" ry="0" transform="translate(357.07 377.86)"></rect><path fill="#f70" d="M444.41 336.79q17.79 0 28.96 5.95 11.17 5.96 11.17 19.33v30.28q0 2.5 1.18 4.12 1.17 1.62 3.52 1.62h5.3v16.9q-.45.3-2.28.96-1.84.66-5.22 1.32t-7.79.66q-8.53 0-14.04-2.57t-7.57-7.13q-5.59 4.41-12.5 7.06-6.91 2.64-16.17 2.64-27.34 0-27.34-21.75 0-11.32 6.1-17.28 6.1-5.95 17.57-8.15 11.46-2.21 29.99-2.21v-3.82q0-4.56-3.16-6.91-3.16-2.35-8.16-2.35-4.56 0-7.87 1.61-3.3 1.62-3.3 5.15v.59h-28.82q-.14-.74-.14-2.06 0-11.03 10.51-17.49 10.51-6.47 30.06-6.47m10.88 45.57q-12.5 0-18.45 2.72-5.96 2.72-5.96 7.27 0 7.35 10 7.35 5.73 0 10.07-3.08 4.34-3.09 4.34-7.65z"></path><rect width="92.91" height="81.14" x="-46.45" y="-40.57" fill="none" rx="0" ry="0" transform="translate(448.58 377.86)"></rect><path fill="#f70" d="m517.76 416.17-29.4-77.62h31.46l14.26 48.37h1.03l14.26-48.37h28.81l-29.7 77.62Z"></path><rect width="89.82" height="77.62" x="-44.91" y="-38.81" fill="none" rx="0" ry="0" transform="translate(533.77 377.86)"></rect><path fill="#f70" d="M583.62 329.44v-19.85h29.25v19.85Zm0 86.73v-77.62h29.25v77.62Z"></path><rect width="29.25" height="106.58" x="-14.63" y="-53.29" fill="none" rx="0" ry="0" transform="translate(598.75 363.38)"></rect><path fill="#f70" d="M664.03 336.79q15.58 0 26.38 6.1 10.81 6.1 10.81 18.89h-27.2q0-4.26-3.82-6.03-2.65-1.47-6.61-1.47-10.59 0-10.59 5 0 2.79 3.68 3.97 3.67 1.17 12.05 2.5 10.29 1.47 17.2 3.45 6.91 1.99 12.05 7.06 5.15 5.07 5.15 14.18 0 14.85-11.1 21.17-11.1 6.32-29.03 6.32-10.29 0-19.41-2.86-9.11-2.87-14.84-8.9-5.74-6.02-5.74-15.29h27.2v.59q.15 5 4.19 6.99 4.04 1.98 8.6 1.98 12.2 0 12.2-5.73 0-2.94-3.82-4.27-3.83-1.32-12.5-2.79-10.44-1.76-17.12-3.82-6.69-2.06-11.69-6.98-5-4.93-5-13.75 0-14.26 10.81-20.28 10.8-6.03 28.15-6.03"></path><rect width="80.12" height="81.14" x="-40.06" y="-40.57" fill="none" rx="0" ry="0" transform="translate(663.57 377.86)"></rect><path fill="#f70" d="M534.994 735.55h-308.96L7.564 522.288V220.712L226.035 7.45h308.95l218.45 213.262v301.576zm-293.106-37.382h277.223L715.15 506.803V236.188L519.12 44.822H241.889L45.86 236.188v270.615z"></path></svg></svg>